<?xml version="1.0" encoding="utf-8"?>
<!-- Generator: Adobe Illustrator 16.0.0, SVG Export Plug-In . SVG Version: 6.00 Build 0)  -->
<!DOCTYPE svg PUBLIC "-//W3C//DTD SVG 1.1//EN" "http://www.w3.org/Graphics/SVG/1.1/DTD/svg11.dtd">
<svg version="1.1" id="Layer_1" xmlns="http://www.w3.org/2000/svg" xmlns:xlink="http://www.w3.org/1999/xlink" x="0px" y="0px"
	 width="1000px" height="1000px" viewBox="0 0 1000 1000" enable-background="new 0 0 1000 1000" xml:space="preserve">
<g>
	<g>
		<g>
			<defs>
				<rect id="SVGID_1_" x="13.773" y="19.695" width="168.494" height="123.016"/>
			</defs>
			<clipPath id="SVGID_2_">
				<use xlink:href="#SVGID_1_"  overflow="visible"/>
			</clipPath>
			<path clip-path="url(#SVGID_2_)" fill="#D1AA67" d="M65.082,36.363c0.785-1.22,2.338-2.279,3.577-3.136l0.006-2.121l1.724-1.655
				l2.67-1.898l3.354-1.673l1.731-2.211l3.417-1.674l7.521-1.075l2.755-0.767l2.861,1.424l1.901-0.587l1.771,1.048l0.963-0.586
				l1.314,1.039c1.732,0.138,2.807-0.314,4.355-1.082l2.543,1.244c1.248,0.118,1.409-0.408,2.113-0.924l2.13,1.222l1.896-0.612
				l0.954,1.265l0.497,0.901c0.941,0.352,1.838,0.432,2.688,0.239c0.804,1.569,2.523,2.153,3.092,3.586l1.7-0.527
				c0.025,0.896,0.731,1.88,1.304,2.141l1.381-0.103l0.831,1.059l1.375-0.31l-0.02,2.002l1.953,1.22
				c0.181,1.121,0.307,2.242,0.396,3.363c0.199,0.649,0.735,0.867,1.752,1.062c0.486,0.448,0.622,1.598,0.203,2.227
				c-0.591,0.497-0.955,1.221-0.821,2.443c-0.644,0.725-1.502,1.02-2.509,1.021c-0.955-1.028-1.844-0.324-2.834-0.333l0.103-1.631
				c-0.57-0.178-1.318,0.023-2.345,0.297c-0.071-0.347-0.347-0.559-0.519-0.839c-0.702-0.142-1.313-0.103-1.833,0.117
				c-0.343,0.796-0.435,1.591-0.411,2.387c-1.301-0.446-1.714-1.104-1.927-1.821l-1.599-0.051l-1.725,0.986
				c-0.271-2.536-3.271-2.879-3.449,0.179c-0.815,0.077-1.46,0.24-1.732,0.588l-0.077,1.735c-1.158,0.15-1.323-0.142-1.984-0.924
				c-1.553-1.836-3.327,3.807-2.566-0.27c0.114-0.611,0.432-1.274,0.025-1.829c-1.038-1.432-4.96,0.97-5.622,2.057
				c-0.987,1.321-1.791,2.41-2.985,3.59c-0.303,0.3-0.554,0.712-0.708,1.214c-0.813,2.659-0.3,7.587-0.56,9.907l-0.479,30.478
				c0.344,0.965,1.94,1.273,2.894,1.934c-1.583,1.971-3.741,0.688-5.701,0.219c0.542-0.232,1.018-0.555,1.255-1.195
				c0.161-2.813,0.207-5.586,0.245-8.362c0-0.046-0.036-0.11,0.001-0.134c0.36-0.213,0.604-0.477,0.043-1.093
				c-0.054-0.06-0.027-0.081-0.026-0.154c0.005-0.29,0.01-0.579,0.015-0.869c0-0.028-0.02-0.063,0.001-0.083
				c0.498-0.513,0.733-1.133,0.037-2.128c-0.021-0.029,0.002-0.071,0.003-0.107c0.005-0.25,0.011-0.5,0.017-0.75
				c0.03-1.196,0.028-2.357,0.275-3.68c0.385-2.053-0.081-4.37-0.087-6.578c0-0.071-0.053-0.166,0.002-0.213
				c0.443-0.403,1.154-0.661,0.105-1.999c-0.038-0.048,0.014-0.122,0.02-0.183c0.235-2.554,0.037-5.487,0.011-8.255
				c-0.001-0.091-0.075-0.22-0.002-0.274c0.595-0.443,0.833-1.258,0.048-2.282c-0.075-0.098,0.014-0.246,0.023-0.368
				c0.019-0.268,0.042-0.533,0.068-0.793c0.206-1.913,0.064-3.876-0.305-5.695c-0.058-0.856-3.453-1.965-4.445-0.648
				c-0.579,0.769,0.211,1.128-0.91,1.2c-2.712-1.278-2.709-0.205-4.708,0.493c-0.671,0.233-1.165,0.069-0.478-0.907
				c1.494-2.122-3.648-3.097-4.694-0.85c-0.536-0.357-1.843,0.024-2.195,0.462l-2.509,0.15l-0.32,0.924l-1.665,0.06
				c-0.375-0.588-0.446-0.58-1.074-0.612c-0.016-0.36-0.156-0.813-0.785-1.63l0.472-0.753c-0.253-0.35-1.022-0.712-1.935-0.557
				c0.416-0.402,1.381-0.934,2.403-1.083c1.297,0.637,2.711,0.382,3.661-0.753c1.479,0.767,3.778,1.258,5.532-0.464
				c0.199-0.33,0.044-0.583-0.464-0.761c0.116-0.176,0.209-0.352,0.256-0.529c0.089-0.335-0.018-0.635-0.253-0.881
				c-1.264-0.631-1.515-0.504-2.36-2.122c-0.763-0.187-1.791-0.122-2.643,0.002c-0.19-0.675-0.928-1.401-2.378-1.058
				c-0.121,0.029-0.229-0.096-0.344-0.144c-1.482-0.619-3.257-0.842-3.373,0.742c-1.419-0.109-1.819,0.024-2.151,0.368
				L65.082,36.363z M95.098,55.762l0.005,3.062l0.307-3.029L95.098,55.762z M93.997,90.236l0.042,0.65l0.086-1.201l-0.163,0.012
				l0.024,0.402l-0.144,0.012l0.078,1.188L93.997,90.236z M95.017,49.807l0.006,3.526l0.307-3.488L95.017,49.807z M94.282,89.173
				l-0.163,0.012l0.076,1.189L94.282,89.173z M94.44,88.662l-0.163,0.012l0.077,1.189L94.44,88.662z M94.597,86.851l-0.163,0.025
				l0.078,2.514L94.597,86.851z M94.755,84.923l-0.163,0.006l0.017,0.131l-0.153,0.008l0.078,0.604l0.079-0.58l0.058,0.441
				L94.755,84.923z M94.774,82.089l-0.163,0.021l0.078,2.045L94.774,82.089z M94.912,80.217l-0.163,0.007l0.078,0.724L94.912,80.217
				z M94.774,80.473l-0.163,0.007l0.078,0.724L94.774,80.473z M94.814,76.931l-0.301,0.009l0.143,0.958L94.814,76.931z
				 M95.038,73.649l-0.158,0.016l0.032,0.673l-0.15,0.015l0.075,1.572l0.078-1.511l0.04,0.823L95.038,73.649z M94.996,68.067
				l-0.158,0.031l0.075,2.959L94.996,68.067z M95.11,66.933l-0.156,0.007l0.073,0.75L95.11,66.933z M95.295,66.439l-0.158,0.007
				l0.075,0.75L95.295,66.439z M95.095,60.982l-0.158,0.033l0.075,3.214L95.095,60.982z M95.095,60.982l-0.158,0.033l0.075,3.214
				L95.095,60.982z M95.295,66.439l-0.158,0.007l0.075,0.75L95.295,66.439z M95.11,66.933l-0.156,0.007l0.073,0.75L95.11,66.933z
				 M94.996,68.067l-0.158,0.031l0.075,2.959L94.996,68.067z M95.038,73.649l-0.158,0.016l0.032,0.673l-0.15,0.015l0.075,1.572
				l0.078-1.511l0.04,0.823L95.038,73.649z M94.814,76.931l-0.301,0.009l0.143,0.958L94.814,76.931z M94.774,80.473l-0.163,0.007
				l0.078,0.724L94.774,80.473z M94.912,80.217l-0.163,0.007l0.078,0.724L94.912,80.217z M94.774,82.089l-0.163,0.021l0.078,2.045
				L94.774,82.089z M94.755,84.923l-0.163,0.006l0.017,0.131l-0.153,0.008l0.078,0.604l0.079-0.58l0.058,0.441L94.755,84.923z
				 M95.017,49.807l0.006,3.526l0.307-3.488L95.017,49.807z M95.098,55.762l0.005,3.062l0.307-3.029L95.098,55.762z"/>
		</g>
	</g>
	<g>
		<g>
			<defs>
				<rect id="SVGID_3_" x="13.773" y="19.695" width="168.494" height="123.016"/>
			</defs>
			<clipPath id="SVGID_4_">
				<use xlink:href="#SVGID_3_"  overflow="visible"/>
			</clipPath>
			<path clip-path="url(#SVGID_4_)" fill="#FFFFFF" d="M27.458,135.841c0,1.291,0.293,2.316,0.879,3.072
				c0.586,0.758,1.369,1.135,2.352,1.135c0.962,0,1.711-0.326,2.249-0.98c0.536-0.652,0.807-1.566,0.807-2.742
				c0-1.225-0.306-2.213-0.914-2.965c-0.609-0.752-1.4-1.127-2.371-1.127c-0.94,0-1.674,0.318-2.204,0.955
				C27.723,133.824,27.458,134.707,27.458,135.841 M28.404,118.73h1.15l-0.475,4.531c-1.163,0.625-2.262,1.088-3.283,1.398
				c-1.024,0.305-2.012,0.459-2.966,0.459c-1.336,0-2.547-0.266-3.638-0.789c-1.088-0.529-2.075-1.332-2.974-2.416
				c-0.831-1.021-1.45-2.15-1.846-3.389c-0.401-1.236-0.603-2.65-0.603-4.227c0-1.533,0.174-2.906,0.52-4.123
				c0.344-1.223,0.876-2.32,1.598-3.309c0.884-1.229,1.955-2.178,3.214-2.852c1.265-0.674,2.602-1.008,4.021-1.008
				c0.854,0,1.746,0.141,2.678,0.424c0.936,0.285,1.942,0.715,3.013,1.289l0.497,4.371l-1.124,0.115
				c-0.392-1.557-1.069-2.766-2.038-3.623c-0.97-0.859-2.146-1.287-3.521-1.287c-1.77,0-3.146,0.787-4.12,2.371
				c-0.979,1.576-1.467,3.803-1.467,6.682c0,3.195,0.536,5.73,1.605,7.598c1.071,1.865,2.514,2.801,4.324,2.801
				c1.293,0,2.386-0.416,3.279-1.24C27.141,121.685,27.86,120.427,28.404,118.73 M36.416,114.398h4.834l-2.374-7.967L36.416,114.398
				z M30.956,124.666v-1.318c0.588-0.125,1.054-0.404,1.4-0.828c0.35-0.42,0.736-1.318,1.162-2.682l4.518-14.609
				c0.009-0.014,0.024-0.059,0.052-0.129c0.127-0.379,0.19-0.668,0.19-0.863c0-0.135-0.024-0.264-0.068-0.395
				c-0.048-0.125-0.113-0.254-0.2-0.379h2.769l5.258,16.68c0.339,1.113,0.69,1.906,1.058,2.377c0.366,0.475,0.814,0.748,1.341,0.828
				v1.318H41.33v-1.318c0.723-0.1,1.219-0.254,1.483-0.475c0.271-0.219,0.405-0.564,0.405-1.033c0-0.244-0.027-0.504-0.074-0.789
				c-0.044-0.283-0.107-0.553-0.195-0.818l-1.25-4.168H35.92l-0.906,3.568c-0.07,0.275-0.122,0.551-0.161,0.824
				c-0.039,0.281-0.057,0.529-0.057,0.754c0,0.604,0.146,1.068,0.438,1.383c0.292,0.32,0.803,0.568,1.524,0.754v1.318H30.956z
				 M55.972,120.029c0,1.258,0.174,2.09,0.52,2.5c0.344,0.408,1.021,0.684,2.031,0.818v1.318H50.46v-1.318
				c1.01-0.135,1.688-0.41,2.034-0.818c0.344-0.41,0.518-1.242,0.518-2.5v-12.074c0-1.258-0.174-2.098-0.518-2.506
				c-0.347-0.408-1.024-0.684-2.034-0.818v-1.168h15.167l0.396,4.887h-1.171c-0.316-1.348-0.837-2.287-1.563-2.826
				c-0.729-0.533-1.896-0.803-3.501-0.803H56.6c-0.248,0-0.414,0.049-0.501,0.154c-0.083,0.1-0.126,0.318-0.126,0.648v7.283h3.418
				c1.054,0,1.789-0.205,2.199-0.609c0.414-0.404,0.653-1.139,0.723-2.201l1.021-0.016v7.373h-1.021
				c-0.053-1.143-0.359-1.957-0.923-2.441c-0.564-0.488-1.511-0.732-2.839-0.732h-2.578L55.972,120.029L55.972,120.029z
				 M67.363,124.666v-1.318c1.021-0.135,1.702-0.41,2.048-0.818c0.344-0.41,0.519-1.242,0.519-2.5v-12.14
				c0-1.254-0.175-2.088-0.519-2.496c-0.346-0.41-1.027-0.684-2.048-0.818v-1.113h14.685l0.126,4.486h-1.097
				c-0.298-1.197-0.838-2.041-1.611-2.529c-0.779-0.484-2.042-0.73-3.797-0.73h-1.873c-0.409,0-0.661,0.057-0.768,0.17
				c-0.1,0.109-0.15,0.395-0.15,0.854v7.033h2.09c1.589,0,2.652-0.205,3.179-0.613c0.526-0.41,0.796-1.148,0.814-2.221l1.123-0.016
				v7.133l-1.123-0.016c-0.026-1.104-0.307-1.855-0.841-2.271c-0.535-0.414-1.585-0.623-3.152-0.623h-2.09v6.174
				c0,1.168,0.239,1.977,0.718,2.42c0.483,0.439,1.372,0.664,2.674,0.664c1.276,0,2.36-0.344,3.257-1.023
				c0.897-0.684,1.659-1.752,2.277-3.205l1.163,0.336l-1.123,5.182h-14.48V124.666z M72.693,101.431l3.688-4.373
				c0.296-0.354,0.531-0.584,0.705-0.703c0.179-0.115,0.349-0.176,0.519-0.176c0.282,0,0.509,0.096,0.685,0.281
				c0.174,0.184,0.261,0.434,0.261,0.744c0,0.213-0.065,0.422-0.196,0.627c-0.134,0.205-0.331,0.404-0.596,0.6l-4.211,3H72.693
				L72.693,101.431z M94.356,113.291c0,3.203,0.535,5.75,1.607,7.631c1.071,1.881,2.504,2.82,4.302,2.82
				c1.759,0,3.131-0.814,4.114-2.436c0.979-1.623,1.473-3.893,1.473-6.818c0-3.039-0.559-5.494-1.673-7.361
				s-2.561-2.801-4.337-2.801c-1.721,0-3.061,0.789-4.032,2.371C94.839,108.273,94.356,110.47,94.356,113.291 M100.046,125.089
				c-1.293,0-2.507-0.289-3.648-0.869c-1.141-0.584-2.142-1.422-3.013-2.525c-0.736-0.924-1.302-2.021-1.689-3.289
				c-0.388-1.268-0.578-2.656-0.578-4.168c0-1.502,0.194-2.904,0.588-4.213c0.392-1.303,0.958-2.445,1.707-3.418
				c0.88-1.152,1.901-2.031,3.072-2.646c1.178-0.613,2.428-0.922,3.754-0.922c1.162,0,2.266,0.25,3.298,0.744
				c1.03,0.498,1.974,1.232,2.813,2.195c0.91,1.043,1.59,2.215,2.042,3.514c0.448,1.303,0.675,2.75,0.675,4.338
				c0,1.381-0.183,2.705-0.544,3.963c-0.36,1.256-0.875,2.371-1.546,3.334c-0.919,1.316-1.96,2.305-3.122,2.969
				C102.695,124.759,101.422,125.089,100.046,125.089 M116.441,113.064c0.205,0.041,0.414,0.07,0.623,0.086
				c0.214,0.016,0.482,0.02,0.808,0.02c1.322,0,2.366-0.389,3.122-1.162c0.757-0.775,1.136-1.828,1.136-3.15
				c0-1.236-0.394-2.234-1.182-3c-0.781-0.758-1.818-1.137-3.104-1.137c-0.578,0-0.957,0.064-1.137,0.199
				c-0.18,0.129-0.268,0.445-0.268,0.938v0.924L116.441,113.064L116.441,113.064z M111.081,124.666v-1.318
				c0.9-0.125,1.526-0.42,1.877-0.883c0.349-0.465,0.521-1.299,0.521-2.506v-11.615c0-1.557-0.154-2.525-0.47-2.9
				c-0.318-0.375-0.958-0.629-1.93-0.754v-1.227h6.482c2.573,0,4.498,0.438,5.771,1.322c1.271,0.883,1.907,2.221,1.907,4.014
				c0,1.406-0.38,2.559-1.142,3.469c-0.763,0.902-1.897,1.551-3.414,1.941c0.366,0.344,0.71,0.693,1.032,1.053
				c0.326,0.363,0.617,0.723,0.88,1.082l3.739,5.057l0.078,0.105c0.9,1.227,1.591,1.842,2.063,1.842h0.053v1.318h-3.443
				l-5.829-8.027c-0.672-0.918-1.177-1.502-1.512-1.746c-0.335-0.25-0.696-0.375-1.076-0.375c-0.025,0-0.069,0.006-0.13,0.016
				c-0.059,0.01-0.103,0.014-0.127,0.014v5.322c0,1.322,0.155,2.211,0.472,2.654c0.316,0.439,0.923,0.719,1.823,0.824v1.318H111.081
				z M135.283,120.029c0,1.258,0.174,2.09,0.519,2.5c0.344,0.408,1.023,0.684,2.033,0.818v1.318h-8.063v-1.318
				c1.012-0.135,1.688-0.41,2.033-0.818c0.344-0.41,0.52-1.242,0.52-2.5v-12.074c0-1.258-0.176-2.098-0.52-2.506
				c-0.345-0.408-1.021-0.684-2.033-0.818v-1.168h15.166l0.396,4.887h-1.171c-0.317-1.348-0.836-2.287-1.563-2.826
				c-0.728-0.533-1.895-0.803-3.5-0.803h-3.188c-0.248,0-0.413,0.049-0.501,0.154c-0.082,0.1-0.126,0.318-0.126,0.648v7.283h3.418
				c1.054,0,1.79-0.205,2.197-0.609c0.414-0.404,0.653-1.139,0.725-2.201l1.02-0.016v7.373h-1.02
				c-0.054-1.143-0.36-1.957-0.923-2.441c-0.565-0.488-1.513-0.732-2.841-0.732h-2.576v5.849H135.283z M146.674,124.666v-1.318
				c1.019-0.135,1.702-0.41,2.047-0.818c0.344-0.41,0.518-1.242,0.518-2.5v-12.14c0-1.254-0.174-2.088-0.518-2.496
				c-0.345-0.41-1.028-0.684-2.047-0.818v-1.113h14.683l0.127,4.486h-1.098c-0.297-1.197-0.836-2.041-1.611-2.529
				c-0.778-0.484-2.042-0.73-3.797-0.73h-1.872c-0.41,0-0.662,0.057-0.768,0.17c-0.102,0.109-0.151,0.395-0.151,0.854v7.033h2.09
				c1.591,0,2.652-0.205,3.181-0.613c0.525-0.41,0.797-1.148,0.813-2.221l1.123-0.016v7.133l-1.123-0.016
				c-0.024-1.104-0.306-1.855-0.84-2.271c-0.536-0.414-1.586-0.623-3.153-0.623h-2.09v6.174c0,1.168,0.239,1.977,0.719,2.42
				c0.483,0.439,1.371,0.664,2.675,0.664c1.274,0,2.358-0.344,3.257-1.023c0.896-0.684,1.659-1.752,2.275-3.205l1.163,0.336
				l-1.123,5.182h-14.479V124.666L146.674,124.666z M163.822,104.689v-1.227h7.702v1.227c-0.899,0.156-1.502,0.449-1.811,0.879
				c-0.306,0.43-0.458,1.344-0.458,2.75v9.635c0,1.746,0.384,3.068,1.154,3.961c0.771,0.898,1.905,1.348,3.414,1.348
				c0.796,0,1.522-0.164,2.177-0.498c0.657-0.33,1.191-0.803,1.609-1.418c0.298-0.42,0.507-0.934,0.634-1.543
				c0.122-0.609,0.183-1.662,0.183-3.164v-7.547c0-1.797-0.188-2.965-0.563-3.508c-0.375-0.549-1.074-0.844-2.103-0.895v-1.227
				h6.505v1.227c-0.954,0.156-1.611,0.516-1.973,1.074c-0.361,0.564-0.541,1.672-0.541,3.328v8.35c0,1.363-0.091,2.393-0.277,3.08
				c-0.188,0.686-0.505,1.338-0.945,1.953c-0.631,0.863-1.409,1.518-2.343,1.955c-0.931,0.439-2.003,0.66-3.222,0.66
				c-2.243,0-3.915-0.609-5.008-1.822c-1.096-1.213-1.64-3.061-1.64-5.545v-9.404c0-1.396-0.169-2.32-0.505-2.773
				C165.481,105.093,164.815,104.804,163.822,104.689 M30.57,140.591c-0.707,0-1.369-0.117-1.993-0.35
				c-0.624-0.234-1.173-0.572-1.647-1.016c-0.403-0.373-0.712-0.814-0.924-1.324c-0.212-0.512-0.317-1.068-0.317-1.678
				c0-0.605,0.107-1.17,0.322-1.695c0.214-0.525,0.523-0.984,0.933-1.377c0.481-0.465,1.04-0.816,1.683-1.064
				c0.642-0.246,1.326-0.371,2.052-0.371c0.635,0,1.237,0.1,1.802,0.299c0.564,0.201,1.078,0.496,1.537,0.883
				c0.498,0.42,0.869,0.893,1.117,1.416c0.245,0.523,0.369,1.105,0.369,1.744c0,0.559-0.102,1.09-0.297,1.598
				c-0.198,0.506-0.479,0.953-0.848,1.342c-0.502,0.529-1.069,0.928-1.707,1.193C32.018,140.458,31.322,140.591,30.57,140.591
				 M45.71,139.167c-0.376,0.447-0.793,0.785-1.247,1.016c-0.455,0.23-0.938,0.346-1.438,0.346c-0.85,0-1.536-0.264-2.057-0.787
				c-0.521-0.525-0.781-1.223-0.781-2.094c0-0.857,0.312-1.566,0.933-2.127c0.619-0.559,1.407-0.838,2.366-0.838
				c0.605,0,1.117,0.127,1.538,0.379c0.422,0.254,0.631,0.551,0.631,0.887c0,0.148-0.072,0.275-0.219,0.379
				c-0.146,0.102-0.326,0.152-0.533,0.152c-0.224,0-0.405-0.158-0.552-0.477c-0.055-0.119-0.103-0.209-0.139-0.271
				c-0.097-0.17-0.242-0.299-0.43-0.393c-0.188-0.092-0.405-0.137-0.652-0.137c-0.534,0-0.957,0.17-1.272,0.512
				c-0.313,0.34-0.471,0.801-0.471,1.381c0,0.691,0.2,1.258,0.602,1.699c0.402,0.441,0.917,0.662,1.538,0.662
				c0.304,0,0.609-0.051,0.919-0.156c0.312-0.102,0.599-0.252,0.866-0.445L45.71,139.167z M52.128,139.949
				c-0.162,0.197-0.343,0.348-0.543,0.449c-0.2,0.105-0.405,0.158-0.614,0.158c-0.224,0-0.419-0.066-0.586-0.201
				c-0.167-0.133-0.295-0.326-0.383-0.576c-0.317,0.24-0.633,0.42-0.95,0.535c-0.314,0.119-0.628,0.178-0.94,0.178
				c-0.476,0-0.865-0.119-1.176-0.354c-0.31-0.234-0.464-0.531-0.464-0.889c0-0.506,0.271-0.932,0.816-1.277
				c0.545-0.346,1.448-0.658,2.714-0.934v-0.803c0-0.342-0.102-0.604-0.3-0.791c-0.2-0.188-0.481-0.279-0.845-0.279
				c-0.312,0-0.559,0.053-0.745,0.158c-0.183,0.107-0.271,0.244-0.271,0.418c0,0.123,0.047,0.262,0.142,0.416
				c0.098,0.154,0.145,0.246,0.145,0.273c0,0.066-0.119,0.152-0.357,0.254c-0.233,0.105-0.459,0.158-0.669,0.158
				c-0.112,0-0.207-0.078-0.286-0.236c-0.078-0.156-0.119-0.354-0.119-0.588c0-0.385,0.255-0.705,0.759-0.963
				c0.505-0.256,1.143-0.385,1.914-0.385c0.679,0,1.162,0.113,1.453,0.336c0.29,0.223,0.438,0.598,0.438,1.123v2.965
				c0,0.193,0.021,0.326,0.061,0.404c0.043,0.076,0.112,0.113,0.21,0.113c0.094,0,0.19-0.014,0.294-0.045
				c0.103-0.029,0.203-0.07,0.308-0.127v0.51H52.128z M50.002,137.601c-0.771,0.178-1.331,0.369-1.673,0.578
				c-0.348,0.207-0.519,0.451-0.519,0.734c0,0.211,0.093,0.389,0.276,0.527c0.183,0.138,0.414,0.207,0.691,0.207
				c0.233,0,0.447-0.043,0.646-0.131c0.197-0.088,0.39-0.225,0.576-0.41L50.002,137.601L50.002,137.601z M52.854,140.421v-0.531
				c0.4-0.02,0.688-0.117,0.854-0.291c0.169-0.176,0.255-0.461,0.255-0.855v-3.42h-1.109v-0.541h1.109v-0.113
				c0-0.973,0.26-1.729,0.781-2.266c0.521-0.537,1.25-0.807,2.188-0.807c0.414,0,0.747,0.074,1.004,0.221
				c0.255,0.146,0.384,0.334,0.384,0.563c0,0.141-0.067,0.266-0.203,0.377c-0.14,0.109-0.299,0.164-0.479,0.164
				c-0.127,0-0.329-0.123-0.608-0.367c-0.276-0.246-0.521-0.369-0.725-0.369c-0.348,0-0.608,0.131-0.781,0.393
				c-0.172,0.262-0.257,0.65-0.257,1.174v1.031h1.485v0.541h-1.485v3.371c0,0.416,0.095,0.719,0.283,0.91
				c0.188,0.191,0.488,0.285,0.902,0.285h0.126v0.531L52.854,140.421L52.854,140.421z M58.634,136.431h2.84
				c-0.029-0.381-0.169-0.684-0.421-0.906c-0.256-0.223-0.579-0.336-0.974-0.336c-0.355,0-0.655,0.107-0.905,0.322
				C58.926,135.724,58.746,136.031,58.634,136.431 M62.973,139.179l-0.371-0.324c-0.307,0.225-0.607,0.391-0.912,0.496
				c-0.302,0.109-0.605,0.164-0.914,0.164c-0.583,0-1.085-0.227-1.506-0.68c-0.424-0.453-0.636-0.99-0.636-1.609
				c0-0.113,0.033-0.186,0.097-0.219c0.065-0.029,0.258-0.045,0.572-0.045h3.732c-0.064-0.676-0.349-1.229-0.851-1.658
				c-0.503-0.43-1.108-0.645-1.822-0.645c-0.852,0-1.561,0.289-2.13,0.867c-0.567,0.578-0.854,1.303-0.854,2.17
				c0,0.852,0.272,1.539,0.824,2.059c0.547,0.523,1.269,0.783,2.159,0.783c0.527,0,0.998-0.107,1.417-0.326
				C62.197,139.996,62.595,139.65,62.973,139.179 M59.031,134.023l2.019-1.758c0.162-0.143,0.29-0.234,0.385-0.285
				c0.099-0.045,0.191-0.068,0.284-0.068c0.154,0,0.278,0.037,0.373,0.111c0.096,0.074,0.143,0.176,0.143,0.301
				c0,0.086-0.036,0.17-0.105,0.252c-0.074,0.082-0.183,0.164-0.326,0.24l-2.302,1.207H59.031z M68.529,136.431h2.842
				c-0.028-0.381-0.168-0.684-0.422-0.906c-0.256-0.223-0.577-0.336-0.975-0.336c-0.354,0-0.654,0.107-0.904,0.322
				C68.822,135.724,68.641,136.031,68.529,136.431 M72.869,139.179c-0.378,0.471-0.776,0.816-1.192,1.033
				c-0.419,0.219-0.891,0.326-1.417,0.326c-0.893,0-1.614-0.26-2.162-0.783c-0.549-0.52-0.823-1.207-0.823-2.059
				c0-0.867,0.286-1.592,0.855-2.17c0.569-0.578,1.278-0.867,2.13-0.867c0.712,0,1.319,0.215,1.821,0.645
				c0.502,0.43,0.786,0.982,0.85,1.658h-3.733c-0.313,0-0.507,0.016-0.569,0.045c-0.064,0.033-0.1,0.105-0.1,0.219
				c0,0.619,0.214,1.156,0.638,1.609c0.421,0.453,0.924,0.68,1.507,0.68c0.307,0,0.612-0.055,0.914-0.164
				c0.303-0.105,0.604-0.271,0.912-0.496L72.869,139.179z M73.797,139.892v-1.449h0.586c0.103,0.535,0.279,0.926,0.526,1.172
				c0.25,0.248,0.588,0.373,1.014,0.373c0.336,0,0.602-0.074,0.803-0.225c0.2-0.15,0.299-0.348,0.299-0.594
				c0-0.385-0.419-0.768-1.254-1.145c-0.283-0.129-0.507-0.234-0.669-0.316c-0.493-0.24-0.854-0.488-1.086-0.746
				c-0.229-0.256-0.345-0.537-0.345-0.844c0-0.43,0.203-0.783,0.608-1.064c0.407-0.279,0.93-0.42,1.561-0.42
				c0.302,0,0.609,0.039,0.921,0.113s0.65,0.189,1.012,0.346v1.277H77.34c-0.107-0.408-0.296-0.719-0.563-0.932
				c-0.267-0.215-0.602-0.322-1.007-0.322c-0.288,0-0.514,0.057-0.674,0.172c-0.159,0.115-0.24,0.268-0.24,0.463
				c0,0.354,0.443,0.736,1.326,1.143c0.157,0.072,0.276,0.125,0.355,0.166c0.616,0.291,1.054,0.572,1.306,0.846
				c0.255,0.271,0.381,0.584,0.381,0.938c0,0.465-0.228,0.863-0.688,1.195c-0.457,0.334-1.016,0.5-1.668,0.5
				c-0.343,0-0.681-0.051-1.016-0.156C74.516,140.281,74.164,140.117,73.797,139.892 M81.301,135.97v2.496
				c0,0.527,0.126,0.914,0.376,1.166c0.252,0.25,0.635,0.377,1.15,0.377c0.521,0,0.938-0.193,1.249-0.58
				c0.312-0.387,0.467-0.912,0.467-1.574c0-0.695-0.172-1.252-0.514-1.672s-0.786-0.631-1.335-0.631
				c-0.229,0-0.448,0.033-0.66,0.096C81.82,135.71,81.575,135.818,81.301,135.97 M78.927,142.71v-0.482
				c0.386-0.035,0.657-0.131,0.81-0.291c0.155-0.158,0.231-0.432,0.231-0.814v-5.209l-0.955-0.385v-0.328l1.926-0.529h0.362v0.77
				c0.39-0.266,0.752-0.461,1.085-0.586c0.331-0.121,0.66-0.184,0.986-0.184c0.726,0,1.321,0.242,1.793,0.729
				c0.468,0.486,0.704,1.117,0.704,1.891c0,0.891-0.317,1.646-0.947,2.273c-0.634,0.625-1.395,0.939-2.281,0.939
				c-0.215,0-0.436-0.025-0.659-0.074c-0.227-0.049-0.453-0.125-0.681-0.225v0.918c0,0.383,0.076,0.656,0.226,0.814
				c0.152,0.16,0.426,0.256,0.814,0.291v0.482H78.927L78.927,142.71z M88.197,136.431h2.842c-0.029-0.381-0.169-0.684-0.421-0.906
				c-0.257-0.223-0.579-0.336-0.976-0.336c-0.354,0-0.654,0.107-0.905,0.322C88.49,135.724,88.309,136.031,88.197,136.431
				 M92.537,139.179c-0.379,0.471-0.776,0.816-1.193,1.033c-0.419,0.219-0.89,0.326-1.416,0.326c-0.893,0-1.614-0.26-2.162-0.783
				c-0.55-0.52-0.824-1.207-0.824-2.059c0-0.867,0.286-1.592,0.855-2.17c0.569-0.578,1.278-0.867,2.131-0.867
				c0.711,0,1.319,0.215,1.821,0.645c0.502,0.43,0.785,0.982,0.85,1.658h-3.731c-0.314,0-0.509,0.016-0.571,0.045
				c-0.064,0.033-0.1,0.105-0.1,0.219c0,0.619,0.214,1.156,0.638,1.609c0.421,0.453,0.923,0.68,1.506,0.68
				c0.308,0,0.612-0.055,0.915-0.164c0.302-0.105,0.604-0.271,0.911-0.496L92.537,139.179z M98.874,139.167
				c-0.376,0.447-0.793,0.785-1.248,1.016c-0.454,0.23-0.937,0.346-1.438,0.346c-0.85,0-1.536-0.264-2.057-0.787
				c-0.522-0.525-0.781-1.223-0.781-2.094c0-0.857,0.311-1.566,0.933-2.127c0.619-0.559,1.407-0.838,2.366-0.838
				c0.605,0,1.117,0.127,1.538,0.379c0.421,0.254,0.631,0.551,0.631,0.887c0,0.148-0.072,0.275-0.219,0.379
				c-0.146,0.102-0.326,0.152-0.533,0.152c-0.224,0-0.406-0.158-0.553-0.477c-0.054-0.119-0.102-0.209-0.138-0.271
				c-0.099-0.17-0.242-0.299-0.433-0.393c-0.188-0.092-0.403-0.137-0.65-0.137c-0.533,0-0.957,0.17-1.271,0.512
				c-0.313,0.34-0.471,0.801-0.471,1.381c0,0.691,0.199,1.258,0.602,1.699c0.403,0.441,0.916,0.662,1.538,0.662
				c0.304,0,0.609-0.051,0.919-0.156c0.311-0.102,0.599-0.252,0.866-0.445L98.874,139.167z M100.604,132.39
				c0-0.189,0.079-0.354,0.238-0.494c0.156-0.137,0.35-0.205,0.578-0.205c0.228,0,0.419,0.068,0.576,0.205
				c0.152,0.141,0.231,0.305,0.231,0.494c0,0.193-0.079,0.357-0.231,0.488c-0.157,0.135-0.35,0.201-0.576,0.201
				c-0.229,0-0.422-0.066-0.578-0.201C100.683,132.748,100.604,132.583,100.604,132.39 M100.759,135.914l-0.955-0.383v-0.328
				l1.919-0.531h0.354v4.148c0,0.412,0.067,0.688,0.209,0.826c0.139,0.141,0.4,0.221,0.788,0.244v0.531h-3.355v-0.531
				c0.39-0.016,0.66-0.1,0.813-0.252c0.148-0.154,0.227-0.428,0.227-0.818V135.914z M109.693,139.949
				c-0.162,0.197-0.343,0.348-0.543,0.449c-0.198,0.105-0.403,0.158-0.612,0.158c-0.226,0-0.419-0.066-0.586-0.201
				c-0.166-0.133-0.297-0.326-0.385-0.576c-0.314,0.24-0.633,0.42-0.948,0.535c-0.313,0.119-0.63,0.178-0.939,0.178
				c-0.477,0-0.867-0.119-1.177-0.354c-0.312-0.235-0.464-0.531-0.464-0.889c0-0.506,0.271-0.932,0.814-1.277
				c0.545-0.345,1.45-0.658,2.714-0.934v-0.803c0-0.342-0.1-0.604-0.3-0.791s-0.479-0.279-0.843-0.279
				c-0.313,0-0.562,0.053-0.745,0.158c-0.184,0.107-0.273,0.244-0.273,0.418c0,0.123,0.049,0.262,0.146,0.416
				c0.095,0.154,0.142,0.246,0.142,0.273c0,0.066-0.118,0.152-0.355,0.254c-0.234,0.105-0.459,0.158-0.669,0.158
				c-0.111,0-0.207-0.078-0.286-0.236c-0.077-0.156-0.117-0.354-0.117-0.588c0-0.385,0.252-0.705,0.757-0.963
				c0.504-0.256,1.144-0.385,1.914-0.385c0.678,0,1.163,0.113,1.454,0.336c0.29,0.223,0.438,0.598,0.438,1.123v2.965
				c0,0.193,0.021,0.326,0.062,0.404c0.043,0.076,0.111,0.113,0.21,0.113c0.093,0,0.189-0.014,0.293-0.045
				c0.104-0.029,0.203-0.07,0.308-0.127v0.51H109.693L109.693,139.949z M107.567,137.601c-0.771,0.178-1.331,0.369-1.673,0.578
				c-0.345,0.207-0.518,0.451-0.518,0.734c0,0.211,0.094,0.389,0.274,0.527c0.186,0.139,0.415,0.207,0.693,0.207
				c0.232,0,0.446-0.043,0.646-0.131c0.197-0.088,0.39-0.225,0.574-0.41L107.567,137.601L107.567,137.601z M110.357,140.421v-0.531
				c0.396-0.016,0.667-0.1,0.819-0.252c0.149-0.154,0.226-0.428,0.226-0.818v-5.873l-0.954-0.383v-0.33l1.927-0.518h0.354v7.104
				c0,0.416,0.068,0.693,0.21,0.828c0.14,0.139,0.396,0.219,0.772,0.242l0.008,0.531H110.357z M123.112,132.947l-0.952-0.383v-0.33
				l1.925-0.518h0.36v7.197c0,0.357,0.052,0.59,0.147,0.695c0.098,0.107,0.285,0.158,0.563,0.158c0.069,0,0.123-0.002,0.164-0.004
				c0.038-0.002,0.074-0.002,0.107-0.002v0.465l-2.343,0.303v-0.762c-0.447,0.275-0.833,0.471-1.161,0.588
				c-0.329,0.113-0.646,0.174-0.952,0.174c-0.728,0-1.324-0.244-1.797-0.73c-0.473-0.486-0.708-1.115-0.708-1.885
				c0-0.898,0.321-1.664,0.967-2.295c0.645-0.631,1.419-0.947,2.326-0.947c0.185,0,0.39,0.031,0.615,0.09
				c0.227,0.063,0.473,0.152,0.734,0.275v-2.089H123.112z M123.085,139.226v-2.496c0-0.506-0.134-0.889-0.399-1.148
				c-0.27-0.262-0.657-0.393-1.169-0.393c-0.521,0-0.938,0.195-1.25,0.582c-0.313,0.389-0.466,0.914-0.466,1.578
				c0,0.689,0.169,1.246,0.509,1.668c0.338,0.422,0.783,0.631,1.333,0.631c0.207,0,0.419-0.029,0.631-0.088
				C122.486,139.503,122.754,139.39,123.085,139.226 M127.582,137.132c0,0.865,0.178,1.572,0.525,2.115
				c0.354,0.545,0.797,0.814,1.335,0.814c0.519,0,0.91-0.168,1.18-0.508c0.27-0.34,0.403-0.838,0.403-1.492
				c0-0.877-0.174-1.58-0.522-2.111c-0.349-0.531-0.802-0.797-1.358-0.797c-0.497,0-0.881,0.17-1.152,0.514
				C127.718,136.011,127.582,136.5,127.582,137.132 M129.311,140.529c-0.894,0-1.641-0.279-2.245-0.83
				c-0.604-0.555-0.905-1.244-0.905-2.072c0-0.859,0.297-1.566,0.891-2.115c0.593-0.553,1.348-0.828,2.262-0.828
				c0.896,0,1.646,0.279,2.247,0.836c0.602,0.557,0.899,1.256,0.899,2.096c0,0.848-0.295,1.545-0.888,2.092
				C130.982,140.253,130.227,140.529,129.311,140.529 M137.026,140.421v-0.531c0.554-0.055,0.926-0.164,1.112-0.33
				c0.188-0.164,0.282-0.5,0.282-1.004v-4.861c0-0.508-0.095-0.844-0.282-1.01c-0.188-0.164-0.561-0.273-1.112-0.328v-0.471h2.823
				c1.071,0,1.829,0.023,2.275,0.068c0.443,0.045,0.836,0.119,1.171,0.221c0.508,0.158,0.894,0.383,1.157,0.676
				c0.266,0.295,0.396,0.645,0.396,1.049c0,0.498-0.195,0.918-0.588,1.26c-0.394,0.342-0.97,0.592-1.727,0.754
				c0.9,0.143,1.588,0.4,2.058,0.77c0.469,0.369,0.703,0.84,0.703,1.414c0,0.324-0.075,0.629-0.228,0.912
				c-0.15,0.287-0.37,0.537-0.657,0.758c-0.316,0.24-0.737,0.408-1.269,0.506c-0.527,0.1-1.454,0.148-2.78,0.148L137.026,140.421
				L137.026,140.421z M139.997,136.253v2.455c0,0.424,0.104,0.725,0.313,0.898c0.21,0.176,0.568,0.262,1.081,0.262
				c0.624,0,1.135-0.158,1.536-0.477c0.399-0.318,0.599-0.727,0.599-1.225c0-0.609-0.262-1.084-0.787-1.422
				c-0.525-0.34-1.265-0.51-2.212-0.51c-0.145,0-0.252,0-0.324,0.002C140.129,136.24,140.061,136.246,139.997,136.253
				 M139.997,135.66c0.162,0.031,0.313,0.055,0.445,0.07c0.136,0.016,0.265,0.023,0.386,0.023c0.695,0,1.27-0.164,1.716-0.494
				c0.443-0.328,0.669-0.752,0.669-1.266c0-0.486-0.201-0.869-0.606-1.152c-0.402-0.283-0.955-0.424-1.652-0.424
				c-0.402,0-0.665,0.027-0.781,0.082s-0.174,0.197-0.174,0.424v0.311L139.997,135.66L139.997,135.66z M146.438,140.421v-0.531
				c0.382,0,0.647-0.082,0.801-0.246c0.149-0.166,0.228-0.473,0.228-0.926v-2.805l-0.982-0.383v-0.328l1.911-0.531h0.354v0.977
				c0.353-0.342,0.662-0.594,0.929-0.756c0.264-0.162,0.5-0.246,0.704-0.246c0.27,0,0.515,0.08,0.735,0.24
				c0.222,0.158,0.329,0.34,0.329,0.545c0,0.186-0.074,0.363-0.226,0.535c-0.152,0.174-0.295,0.26-0.43,0.26
				c-0.104,0-0.252-0.104-0.446-0.313c-0.195-0.207-0.359-0.313-0.495-0.313c-0.176,0-0.357,0.07-0.553,0.213
				c-0.19,0.141-0.373,0.344-0.55,0.607v2.504c0,0.346,0.083,0.596,0.252,0.748c0.167,0.152,0.437,0.23,0.808,0.23
				c0.027,0,0.068-0.004,0.124-0.008c0.052-0.004,0.093-0.006,0.121-0.006v0.531h-3.614V140.421L146.438,140.421z M157.724,139.949
				c-0.161,0.197-0.342,0.348-0.542,0.449c-0.2,0.105-0.405,0.158-0.614,0.158c-0.224,0-0.419-0.066-0.586-0.201
				c-0.167-0.133-0.295-0.326-0.383-0.576c-0.315,0.24-0.635,0.42-0.95,0.535c-0.313,0.119-0.629,0.178-0.939,0.178
				c-0.477,0-0.865-0.119-1.175-0.354c-0.312-0.235-0.467-0.531-0.467-0.889c0-0.506,0.271-0.932,0.817-1.277
				c0.545-0.346,1.449-0.658,2.714-0.934v-0.803c0-0.342-0.101-0.604-0.3-0.791c-0.2-0.188-0.481-0.279-0.844-0.279
				c-0.313,0-0.561,0.053-0.745,0.158c-0.185,0.107-0.273,0.244-0.273,0.418c0,0.123,0.048,0.262,0.145,0.416
				c0.096,0.154,0.144,0.246,0.144,0.273c0,0.066-0.119,0.152-0.355,0.254c-0.236,0.105-0.46,0.158-0.669,0.158
				c-0.112,0-0.207-0.078-0.286-0.236c-0.078-0.156-0.119-0.354-0.119-0.588c0-0.385,0.253-0.705,0.759-0.963
				c0.504-0.256,1.142-0.385,1.912-0.385c0.679,0,1.164,0.113,1.455,0.336c0.29,0.223,0.436,0.598,0.436,1.123v2.965
				c0,0.193,0.021,0.326,0.063,0.404c0.043,0.076,0.11,0.113,0.209,0.113c0.094,0,0.189-0.014,0.293-0.045
				c0.104-0.029,0.205-0.07,0.308-0.127v0.51H157.724L157.724,139.949z M155.599,137.601c-0.771,0.178-1.331,0.369-1.674,0.578
				c-0.346,0.207-0.517,0.451-0.517,0.734c0,0.211,0.093,0.389,0.274,0.527c0.185,0.139,0.414,0.207,0.692,0.207
				c0.231,0,0.446-0.043,0.646-0.131c0.197-0.088,0.392-0.225,0.576-0.41L155.599,137.601L155.599,137.601z M158.619,139.892v-1.449
				h0.586c0.103,0.535,0.277,0.926,0.524,1.172c0.25,0.248,0.589,0.373,1.016,0.373c0.336,0,0.604-0.074,0.802-0.225
				c0.201-0.15,0.302-0.348,0.302-0.594c0-0.385-0.419-0.768-1.255-1.145c-0.283-0.129-0.508-0.234-0.669-0.316
				c-0.493-0.24-0.855-0.488-1.086-0.746c-0.23-0.256-0.345-0.537-0.345-0.844c0-0.43,0.2-0.783,0.607-1.064
				c0.407-0.279,0.928-0.42,1.561-0.42c0.302,0,0.608,0.039,0.921,0.113s0.648,0.189,1.013,0.346v1.277h-0.434
				c-0.106-0.408-0.295-0.719-0.563-0.932c-0.268-0.215-0.604-0.322-1.007-0.322c-0.288,0-0.515,0.057-0.675,0.172
				c-0.158,0.115-0.239,0.268-0.239,0.463c0,0.354,0.442,0.736,1.325,1.143c0.157,0.072,0.274,0.125,0.354,0.166
				c0.619,0.291,1.057,0.572,1.31,0.846c0.254,0.271,0.381,0.584,0.381,0.938c0,0.465-0.229,0.863-0.688,1.195
				c-0.458,0.334-1.015,0.5-1.67,0.5c-0.34,0-0.678-0.051-1.013-0.156C159.338,140.281,158.986,140.117,158.619,139.892
				 M165.007,132.39c0-0.189,0.077-0.354,0.237-0.494c0.155-0.137,0.35-0.205,0.576-0.205c0.229,0,0.421,0.068,0.576,0.205
				c0.155,0.141,0.233,0.305,0.233,0.494c0,0.193-0.078,0.357-0.233,0.488c-0.155,0.135-0.348,0.201-0.576,0.201
				c-0.228,0-0.421-0.066-0.576-0.201C165.084,132.748,165.007,132.583,165.007,132.39 M165.161,135.914l-0.955-0.383v-0.328
				l1.919-0.531h0.354v4.148c0,0.412,0.069,0.688,0.21,0.826c0.14,0.141,0.402,0.221,0.787,0.244v0.531h-3.354v-0.531
				c0.391-0.016,0.662-0.1,0.813-0.252c0.149-0.154,0.228-0.428,0.228-0.818V135.914L165.161,135.914z M168.376,140.421v-0.531
				c0.396-0.016,0.667-0.1,0.817-0.252c0.15-0.154,0.228-0.428,0.228-0.818v-5.873l-0.953-0.383v-0.33l1.925-0.518h0.354v7.104
				c0,0.416,0.067,0.693,0.21,0.828c0.139,0.139,0.396,0.219,0.771,0.242l0.008,0.531H168.376z"/>
		</g>
	</g>
	<g>
		<g>
			<defs>
				<rect id="SVGID_5_" x="13.773" y="19.695" width="168.494" height="123.016"/>
			</defs>
			<clipPath id="SVGID_6_">
				<use xlink:href="#SVGID_5_"  overflow="visible"/>
			</clipPath>
			<path clip-path="url(#SVGID_6_)" fill="#4F3D30" d="M117.811,24.328c3.464-0.002,2.012,3.035,5.477,3.131
				c0.624,0.806,1.595,0.583,1.755,1.706c1.884,0.23,4.451,1.434,4.377,2.345l-0.284,0.659c0.289,0.426,1.923,1.418,1.999,1.897
				c0.066,0.868,0.115,2.817,0.859,3.325c3.935,2.689,0.555,4.338,0.713,6.377c-1.085,1.218-2.155,1.932-3.788,1.946
				c-0.617-1.046-2.899-0.032-3.711-2.328c-0.248,0.093-0.748,0.592-1.068,0.73c-0.234,0.1-0.63,0.05-0.794-0.143
				c-0.299-0.352-0.475-0.753-0.438-1.133c-0.146,0.006-0.275,0.003-0.424-0.01c-0.487,0.196,0.126,1.808,0.138,2.252
				c-0.479,0.309-1.021,0.431-1.665,0.278c-0.939-0.398-1.392-0.771-2.093-1.464l-0.716-0.023c-2.516,1.22-3.036,1.91-3.438-1.129
				c-1.167-0.842-1.272,1.293-1.329,1.921c-1.564,0.056-1.425,0.024-1.562,1.707c-0.07,0.914-0.188,1.571-1.273,1.172
				c-1.166-0.427-2.303-1.675-2.648-1.758c-0.474,0.194-0.542,0.925-0.858,1.319c-2.632,1.324-5.438-0.433-2.308-1.871
				c0.723-0.489,0.55-0.958,0.222-1.608c-2.125,0.359-5.741,4.465-6.874,6.15l-0.037,0.058l-0.035,0.061l-0.035,0.064
				c-1.601,3.077-0.622,6.891-0.754,10.239l-0.362,30.047c0.386,0.215,0.667,0.594,1.037,0.834c0.721,0.488,0.972,0.732,1.598,1.156
				l-0.645,0.883c-0.731,0.771-1.593,1.166-2.664,1.094c-0.979-0.113-1.883-0.51-2.827-0.768c-1.628-0.334-2.166-1.131-2.886-2.086
				c1.327-0.141,2.138-0.064,2.659-1.527c0.119-2.521,0.17-5.043,0.21-7.567c0.001-0.029-0.008-0.061,0.002-0.089
				c0.131-0.377,0.288-0.755,0.017-1.094c-0.014-0.017,0-0.043,0.001-0.064c0.005-0.321,0.009-0.641,0.016-0.961
				c0-0.026-0.009-0.053,0.001-0.077c0.205-0.609,0.437-1.2,0.022-2.101c-0.015-0.032,0.001-0.071,0.002-0.106
				c0.005-0.249,0.012-0.498,0.018-0.747c0.034-1.194,0.197-2.379,0.269-3.572c0.085-1.576,0.005-3.156-0.048-4.732
				c-0.024-0.784-0.011-1.565,0.019-2.346c0.001-0.025-0.013-0.056,0.003-0.075c0.597-0.742,0.243-1.196,0.082-1.708
				c-0.007-0.022,0.004-0.046,0.005-0.07c0.037-0.722,0.074-1.444,0.094-2.169c0.023-1.682-0.037-4.663-0.077-6.345
				c0.432-1.381,0.426-0.767,0.088-2.45c0.149-1.521,0.159-3.849-0.035-5.369c-0.213-1.564-2.763-1.677-2.825-0.5
				c-0.019,0.989-0.972,1.282-1.762,0.919c-4.787-1.248-5.673,3.876-6.255-0.944c-0.03-0.25-0.089-0.414-0.166-0.651
				c-0.478-1.454-2.319-0.027-1.754,0.891c-1.599,0.723-1.819-1.424-3.119,0.052l-2.356,0.141l-0.324,0.933l-2.923,0.26
				c-0.563-0.867-2.411-1.498-1.828-2.553c-0.018-1.248-0.392-1.175-1.058-0.646c-1.204,0.067-1.51-0.448-2.023-1.168
				c1.235-1.872,2.025-2.735,4.202-3.079c1.251,0.982,2.784-0.393,2.885-0.723c2.183,0.871,4.192,1.191,4.888-0.312
				c-0.095,0.203-1.841-1.621-2.146-1.962c-0.577,0.02-1.141,0.102-1.712,0.183c-0.56-0.735-1.613-1.085-2.021-1.116
				c-0.8-0.14-1.421-0.637-2.322-0.617c-0.798,0.057-0.744,0.8-0.811,1.408c-0.379-0.027-0.836,0.248-1.065,0.005
				c-0.549-0.584-0.943-0.604-1.049,0.254c-0.081,0.667-1.126,0.431-1.44,0.188c-0.896-0.688-3.233-1.771-2.169-3.24
				c0.813-1.206,1.87-2.258,3.054-3.105l0.561-1.994l1.771-2.493l3-1.313l2.638-1.893l1.794-2.21l1.551-1.111l1.588-0.206
				c2.651-0.806,5.67-1.399,8.619-1.426l3.43-0.468l2.241,0.616c1.285,0.193,3.063,0.223,3.561,0.679l1.947-0.001l0.901,0.487
				c1.622,0.111,2.924,0.053,4.408-0.66c1.323,0.453,3.598,1.148,4.887,0.233l1.751,0.554l1.473-0.091l1.288,0.938l0.578,0.058
				C116.292,23.565,116.421,23.862,117.811,24.328 M65.082,36.363l1.732,1.009c0.332-0.344,0.732-0.478,2.152-0.368
				c0.116-1.584,1.891-1.361,3.372-0.742c0.115,0.048,0.224,0.173,0.345,0.144c1.449-0.343,2.188,0.383,2.378,1.058
				c0.851-0.124,1.88-0.189,2.642-0.002c0.847,1.617,1.098,1.491,2.36,2.122c0.236,0.246,0.344,0.546,0.253,0.881
				c-0.047,0.177-0.14,0.353-0.255,0.529c0.507,0.178,0.662,0.431,0.463,0.761c-1.754,1.722-4.053,1.231-5.531,0.463
				c-0.95,1.136-2.365,1.391-3.662,0.754c-1.022,0.149-1.987,0.681-2.402,1.083c0.91-0.156,1.681,0.207,1.934,0.557l-0.471,0.753
				c0.628,0.817,0.771,1.27,0.785,1.63c0.628,0.032,0.699,0.024,1.074,0.612l1.665-0.06l0.32-0.924l2.509-0.15
				c0.353-0.438,1.658-0.82,2.194-0.462c1.046-2.247,6.188-1.271,4.695,0.849c-0.688,0.977-0.193,1.141,0.477,0.908
				c2-0.698,1.996-1.771,4.708-0.493c1.122-0.072,0.331-0.431,0.91-1.2c0.993-1.317,4.39-0.209,4.445,0.647
				c0.37,1.82,0.511,3.783,0.305,5.696c-0.026,0.26-0.051,0.524-0.068,0.793c-0.01,0.122-0.1,0.27-0.023,0.368
				c0.785,1.024,0.547,1.839-0.048,2.282c-0.073,0.054,0.001,0.182,0.002,0.274c0.026,2.768,0.227,5.701-0.011,8.255
				c-0.005,0.061-0.057,0.135-0.019,0.183c1.049,1.338,0.338,1.596-0.105,1.998c-0.055,0.048-0.003,0.142-0.002,0.213
				c0.005,2.209,0.472,4.526,0.087,6.579c-0.248,1.322-0.245,2.484-0.275,3.679c-0.007,0.251-0.012,0.501-0.018,0.751
				c-0.001,0.036-0.023,0.078-0.002,0.107c0.695,0.995,0.46,1.615-0.038,2.128c-0.021,0.019-0.001,0.055-0.001,0.083
				c-0.004,0.29-0.009,0.579-0.015,0.869c0,0.073-0.026,0.094,0.026,0.153c0.563,0.617,0.318,0.881-0.042,1.094
				c-0.038,0.023-0.001,0.089-0.002,0.133c-0.038,2.777-0.084,5.55-0.245,8.363c-0.237,0.641-0.712,0.963-1.254,1.195
				c1.959,0.469,4.118,1.752,5.701-0.219c-0.953-0.66-2.551-0.967-2.895-1.934l0.479-30.478c0.261-2.32-0.254-7.248,0.561-9.908
				c0.153-0.501,0.404-0.914,0.707-1.213c1.194-1.181,1.999-2.269,2.985-3.59c0.663-1.087,4.584-3.489,5.624-2.058
				c0.403,0.556,0.087,1.219-0.027,1.83c-0.76,4.076,1.017-1.566,2.567,0.27c0.661,0.781,0.827,1.074,1.986,0.924l0.076-1.735
				c0.271-0.349,0.916-0.511,1.73-0.588c0.182-3.058,3.178-2.715,3.45-0.179l1.725-0.986l1.601,0.051
				c0.211,0.717,0.626,1.375,1.926,1.821c-0.022-0.796,0.067-1.592,0.41-2.387c0.52-0.22,1.132-0.259,1.833-0.117
				c0.173,0.28,0.446,0.492,0.519,0.839c1.025-0.274,1.772-0.475,2.346-0.297l-0.103,1.631c0.99,0.009,1.877-0.695,2.833,0.333
				c1.006-0.001,1.865-0.296,2.509-1.021c-0.134-1.222,0.231-1.946,0.822-2.443c0.418-0.629,0.283-1.779-0.204-2.227
				c-1.014-0.196-1.552-0.414-1.751-1.062c-0.089-1.121-0.215-2.242-0.396-3.363l-1.95-1.22l0.016-2.002l-1.374,0.31l-0.832-1.06
				l-1.38,0.104c-0.57-0.261-1.277-1.246-1.304-2.141l-1.7,0.527c-0.566-1.433-2.287-2.017-3.091-3.586
				c-0.854,0.193-1.748,0.113-2.69-0.239l-0.497-0.901l-0.953-1.265l-1.896,0.612l-2.13-1.222c-0.705,0.516-0.866,1.042-2.113,0.924
				l-2.543-1.244c-1.552,0.768-2.623,1.22-4.355,1.082l-1.314-1.039l-0.963,0.585L96.6,20.99l-1.902,0.587l-2.861-1.424
				l-2.754,0.767l-7.521,1.075l-3.418,1.674l-1.731,2.211l-3.354,1.673l-2.669,1.898l-1.724,1.655l-0.006,2.121
				C67.419,34.084,65.868,35.143,65.082,36.363"/>
		</g>
	</g>
	<g>
		<g>
			<defs>
				<rect id="SVGID_7_" x="13.773" y="19.695" width="168.494" height="123.016"/>
			</defs>
			<clipPath id="SVGID_8_">
				<use xlink:href="#SVGID_7_"  overflow="visible"/>
			</clipPath>
			<polygon clip-path="url(#SVGID_8_)" fill="#785221" points="93.997,90.236 93.921,91.298 93.844,90.111 93.988,90.099 
				93.962,89.697 94.125,89.685 94.039,90.886 			"/>
		</g>
	</g>
	<g>
		<g>
			<defs>
				<rect id="SVGID_9_" x="13.773" y="19.695" width="168.494" height="123.016"/>
			</defs>
			<clipPath id="SVGID_10_">
				<use xlink:href="#SVGID_9_"  overflow="visible"/>
			</clipPath>
			<polygon clip-path="url(#SVGID_10_)" fill="#785221" points="94.282,89.173 94.197,90.375 94.119,89.185 			"/>
		</g>
	</g>
	<g>
		<g>
			<defs>
				<rect id="SVGID_11_" x="13.773" y="19.695" width="168.494" height="123.016"/>
			</defs>
			<clipPath id="SVGID_12_">
				<use xlink:href="#SVGID_11_"  overflow="visible"/>
			</clipPath>
			<polygon clip-path="url(#SVGID_12_)" fill="#785221" points="94.44,88.662 94.354,89.863 94.277,88.673 			"/>
		</g>
	</g>
	<g>
		<g>
			<defs>
				<rect id="SVGID_13_" x="13.773" y="19.695" width="168.494" height="123.016"/>
			</defs>
			<clipPath id="SVGID_14_">
				<use xlink:href="#SVGID_13_"  overflow="visible"/>
			</clipPath>
			<polygon clip-path="url(#SVGID_14_)" fill="#785221" points="94.597,86.851 94.512,89.39 94.434,86.876 			"/>
		</g>
	</g>
</g>
<g>
	<path fill="#D1B45D" d="M145.263,169.117h87v1h-87V169.117z"/>
	<path fill="#D1B45D" d="M22.263,169.117h87v1h-87V169.117z"/>
	<path fill="#D1B45D" d="M123.904,169.627c-3.1,4.786,3.73,8.481,3.73,8.481s1.95-7.426-3.69-8.494L123.904,169.627z"/>
	<path fill="#D1B45D" d="M123.799,167.187c1.464-6.314,8.169-4.948,8.169-4.948s-1.669,6.4-8.15,4.976L123.799,167.187z"/>
	<path fill="#D1B45D" d="M130.451,168.591c0.433-4.791,7.116-4.038,7.116-4.038s-2.635,6.057-7.096,4.071L130.451,168.591z"/>
	<path fill="#D1B45D" d="M136.497,172.1c-0.812,3.95,4.768,4.671,4.768,4.671s-0.667-5.406-4.746-4.693L136.497,172.1z"/>
	<path fill="#D1B45D" d="M115.349,173.319c-0.139-0.115-0.187-0.299-0.104-0.467c0.994-2.151,2.608-3.597,4.792-4.296
		c6.614-2.13,16.19,3.204,16.597,3.439c0.197,0.109,0.263,0.351,0.146,0.542c-0.118,0.193-0.369,0.264-0.568,0.15
		c-0.098-0.054-9.672-5.386-15.938-3.37c-1.947,0.626-3.385,1.924-4.277,3.853c-0.098,0.205-0.342,0.296-0.554,0.208
		C115.416,173.367,115.373,173.345,115.349,173.319z"/>
	<path fill="#D1B45D" d="M123.099,166.504c-0.465,0.612-1.341,0.742-1.962,0.302c-0.62-0.447-0.738-1.297-0.27-1.908
		c0.461-0.606,1.344-0.748,1.963-0.299C123.445,165.039,123.569,165.892,123.099,166.504z"/>
	<path fill="#D1B45D" d="M130.938,173.441c-0.509,0.574-1.391,0.652-1.98,0.172c-0.582-0.482-0.646-1.342-0.14-1.918
		c0.51-0.58,1.392-0.658,1.976-0.174C131.382,172.005,131.447,172.863,130.938,173.441z"/>
	<path fill="#D1B45D" d="M138.239,170.757c-0.511,0.575-1.396,0.656-1.979,0.172c-0.585-0.479-0.649-1.334-0.138-1.919
		c0.5-0.575,1.395-0.659,1.976-0.171C138.683,169.322,138.749,170.179,138.239,170.757z"/>
</g>
<g>
	<path fill="#24211F" d="M375.88,169.117h87v1h-87V169.117z"/>
	<path fill="#24211F" d="M252.88,169.117h87v1h-87V169.117z"/>
	<path fill="#24211F" d="M354.521,169.627c-3.1,4.786,3.73,8.481,3.73,8.481s1.948-7.426-3.69-8.494L354.521,169.627z"/>
	<path fill="#24211F" d="M354.414,167.187c1.466-6.314,8.171-4.948,8.171-4.948s-1.671,6.4-8.15,4.976L354.414,167.187z"/>
	<path fill="#24211F" d="M361.068,168.591c0.435-4.791,7.118-4.038,7.118-4.038s-2.635,6.057-7.096,4.071L361.068,168.591z"/>
	<path fill="#24211F" d="M367.114,172.1c-0.81,3.95,4.77,4.671,4.77,4.671s-0.667-5.406-4.746-4.693L367.114,172.1z"/>
	<path fill="#24211F" d="M345.966,173.319c-0.141-0.115-0.188-0.299-0.106-0.467c0.996-2.151,2.61-3.597,4.792-4.296
		c6.616-2.13,16.192,3.204,16.597,3.439c0.197,0.109,0.265,0.351,0.148,0.542c-0.12,0.193-0.371,0.264-0.57,0.15
		c-0.096-0.054-9.672-5.386-15.936-3.37c-1.949,0.626-3.385,1.924-4.279,3.853c-0.096,0.205-0.34,0.296-0.552,0.208
		C346.031,173.367,345.99,173.345,345.966,173.319z"/>
	<path fill="#24211F" d="M353.716,166.504c-0.465,0.612-1.341,0.742-1.962,0.302c-0.62-0.447-0.738-1.297-0.271-1.908
		c0.461-0.606,1.344-0.748,1.963-0.299C354.063,165.039,354.187,165.892,353.716,166.504z"/>
	<path fill="#24211F" d="M361.556,173.441c-0.509,0.574-1.393,0.652-1.982,0.172c-0.582-0.482-0.646-1.342-0.138-1.918
		c0.508-0.58,1.39-0.658,1.974-0.174C361.997,172.005,362.064,172.863,361.556,173.441z"/>
	<path fill="#24211F" d="M368.856,170.757c-0.511,0.575-1.396,0.656-1.98,0.172c-0.586-0.479-0.648-1.334-0.139-1.919
		c0.5-0.575,1.396-0.659,1.978-0.171C369.3,169.322,369.365,170.179,368.856,170.757z"/>
</g>
<path fill="none" d="M40.667,227.166c-0.474,0.473-1.235,0.473-1.706,0l-5.545-5.568c-0.474-0.473-0.474-1.24,0-1.713
	c0.471-0.473,1.232-0.473,1.705,0l5.546,5.568C41.139,225.926,41.139,226.692,40.667,227.166z"/>
<path fill="none" d="M27.383,227.166c0.471,0.473,1.235,0.473,1.707,0l5.545-5.568c0.471-0.473,0.471-1.24,0-1.713
	c-0.471-0.473-1.235-0.473-1.707,0l-5.545,5.568C26.912,225.926,26.912,226.692,27.383,227.166z"/>
<g>
	<path fill="#24201E" d="M41.521,325.269c-11.874,0-21.5-9.59-21.5-21.423c0-9.315,11.331-32.479,16.999-42.331
		c1.53-2.66,4.501-2.276,4.501-2.276S41.521,292.998,41.521,325.269z"/>
	<path fill="#24201E" d="M40.521,325.269c11.874,0,21.5-9.59,21.5-21.423c0-9.315-11.331-32.479-16.999-42.331
		c-1.528-2.66-4.501-2.276-4.501-2.276S40.521,292.998,40.521,325.269z"/>
</g>
<g>
	<path fill="#C2A858" d="M77.396,259.577c0.474-0.475,1.238-0.475,1.71,0l5.56,5.59c0.472,0.475,0.472,1.245,0,1.72
		c-0.474,0.475-1.238,0.475-1.71,0l-5.56-5.59C76.924,260.821,76.924,260.052,77.396,259.577z"/>
	<path fill="#C2A858" d="M90.71,259.577c-0.474-0.475-1.238-0.475-1.71,0l-5.56,5.59c-0.472,0.475-0.472,1.245,0,1.72
		c0.474,0.475,1.238,0.475,1.71,0l5.56-5.59C91.182,260.821,91.182,260.052,90.71,259.577z"/>
</g>
<g>
	<path fill="#151212" d="M22.021,384.5h16c11.599,0,21,9.402,21,21c0,11.6-9.401,21-21,21h-16
		C22.021,405.703,22.021,404.123,22.021,384.5z"/>
</g>
<g>
	<path fill="#C2A858" d="M35.866,412.157c-0.476-0.473-0.476-1.238,0-1.71l5.59-5.559c0.475-0.472,1.245-0.472,1.72,0
		c0.475,0.473,0.475,1.238,0,1.71l-5.59,5.559C37.11,412.629,36.341,412.629,35.866,412.157z"/>
	<path fill="#C2A858" d="M35.866,398.843c-0.476,0.473-0.476,1.238,0,1.71l5.59,5.559c0.475,0.472,1.245,0.472,1.72,0
		c0.475-0.473,0.475-1.238,0-1.71l-5.59-5.559C37.11,398.371,36.341,398.371,35.866,398.843z"/>
</g>
<g>
	<path fill="#151212" d="M116.205,427.316h-16c-11.599,0-21-9.402-21-21c0-11.6,9.401-21,21-21h16
		C116.205,406.113,116.205,407.693,116.205,427.316z"/>
</g>
<g>
	<path fill="#C2A858" d="M102.36,399.659c0.476,0.473,0.476,1.238,0,1.71l-5.59,5.559c-0.475,0.472-1.245,0.472-1.72,0
		c-0.475-0.473-0.475-1.238,0-1.71l5.59-5.559C101.115,399.187,101.885,399.187,102.36,399.659z"/>
	<path fill="#C2A858" d="M102.36,412.973c0.476-0.473,0.476-1.238,0-1.71l-5.59-5.559c-0.475-0.472-1.245-0.472-1.72,0
		c-0.475,0.473-0.475,1.238,0,1.71l5.59,5.559C101.115,413.445,101.885,413.445,102.36,412.973z"/>
</g>
<g>
	<path fill-rule="evenodd" clip-rule="evenodd" fill="#C2A858" d="M139.352,274.582c-0.472,0.475-1.237,0.475-1.709,0l-5.558-5.59
		c-0.472-0.475-0.472-1.245,0-1.72c0.472-0.475,1.238-0.475,1.71,0l5.557,5.59C139.824,273.337,139.824,274.106,139.352,274.582z"/>
	<path fill-rule="evenodd" clip-rule="evenodd" fill="#C2A858" d="M126.039,274.582c0.472,0.475,1.238,0.475,1.71,0l5.558-5.59
		c0.472-0.475,0.472-1.245,0-1.72c-0.473-0.475-1.238-0.475-1.71,0l-5.558,5.59C125.567,273.337,125.567,274.106,126.039,274.582z"
		/>
</g>
<g>
	<path fill-rule="evenodd" clip-rule="evenodd" fill="#C2A858" d="M139.563,266.886c-0.473,0.475-1.238,0.475-1.711,0l-5.557-5.59
		c-0.472-0.475-0.472-1.245,0-1.72c0.473-0.475,1.239-0.475,1.709,0l5.559,5.59C140.034,265.641,140.034,266.411,139.563,266.886z"
		/>
	<path fill-rule="evenodd" clip-rule="evenodd" fill="#C2A858" d="M126.249,266.886c0.472,0.475,1.238,0.475,1.71,0l5.557-5.59
		c0.473-0.475,0.473-1.245,0-1.72c-0.471-0.475-1.237-0.475-1.709,0l-5.558,5.59C125.777,265.641,125.777,266.411,126.249,266.886z"
		/>
</g>
</svg>
